<svg width="39" height="39" viewBox="0 0 39 39" fill="none" xmlns="http://www.w3.org/2000/svg">
<path d="M33.7325 0.217896H5.18962C2.32347 0.217896 0 2.53301 0 5.38884V33.8291C0 36.6849 2.32347 39 5.18962 39H33.7325C36.5987 39 38.9222 36.6849 38.9222 33.8291V5.38884C38.9222 2.53301 36.5987 0.217896 33.7325 0.217896Z" fill="#0410F1"/>
<path d="M12.4551 27.1068V18.394C12.4551 18.1176 12.4727 17.8413 12.5377 17.5727C13.0322 15.5291 14.9902 12.1111 19.686 12.1111C24.7095 12.1111 26.4728 16.023 26.7265 17.979V23.619C26.7265 24.928 25.6616 25.9891 24.348 25.9891C23.0343 25.9891 21.9694 24.928 21.9694 23.619V19.1898C21.9694 18.3826 21.5127 16.7681 19.686 16.7681C17.4025 16.7681 17.2122 18.4447 17.2122 19.1898C17.2122 19.7858 17.2122 24.7163 17.2122 27.1068" stroke="#F8F8F8" stroke-width="3"/>
</svg>
